<svg id="Слой_1" data-name="Слой 1" xmlns="http://www.w3.org/2000/svg" viewBox="0 0 801 1401"><defs><style>.cls-1{fill:#bfe1ff;}.cls-1,.cls-115,.cls-13,.cls-3{stroke:#000;}.cls-1,.cls-115,.cls-13,.cls-2,.cls-3{stroke-miterlimit:10;}.cls-115,.cls-13,.cls-2{fill:none;}.cls-2{stroke:#000333;}.cls-13,.cls-2{stroke-width:2px;}.cls-3{fill:#333;}.cls-4{font-size:60px;}.cls-38,.cls-4{font-family:Haettenschweiler, Haettenschweiler;}.cls-14,.cls-23,.cls-5{font-size:18px;}.cls-12,.cls-16,.cls-17,.cls-18,.cls-31,.cls-32,.cls-33,.cls-34,.cls-35,.cls-36,.cls-37,.cls-5{font-family:FranklinGothic-Medium, Franklin Gothic Medium;}.cls-17,.cls-6{letter-spacing:-0.01em;}.cls-7{letter-spacing:0em;}.cls-8{letter-spacing:-0.02em;}.cls-33,.cls-9{letter-spacing:-0.01em;}.cls-10,.cls-12{font-size:21px;}.cls-10,.cls-23{fill:#fff;}.cls-10,.cls-14,.cls-23{font-family:FranklinGothic-Heavy, Franklin Gothic Heavy;}.cls-11{letter-spacing:-0.03em;}.cls-15{letter-spacing:-0.01em;}.cls-18{letter-spacing:0.02em;}.cls-19{letter-spacing:0em;}.cls-20,.cls-36{letter-spacing:-0.01em;}.cls-21,.cls-35{letter-spacing:-0.02em;}.cls-22{letter-spacing:-0.01em;}.cls-24{letter-spacing:-0.02em;}.cls-25{letter-spacing:0em;}.cls-26{letter-spacing:0.01em;}.cls-27,.cls-34{letter-spacing:0.01em;}.cls-28{letter-spacing:-0.02em;}.cls-29{letter-spacing:0.03em;}.cls-30{letter-spacing:0.01em;}.cls-31,.cls-32,.cls-33,.cls-34,.cls-35,.cls-36,.cls-37{font-size:12px;}.cls-109,.cls-32{letter-spacing:-0.01em;}.cls-107,.cls-37{letter-spacing:0.02em;}.cls-38{font-size:81px;}.cls-39{fill:#0150a1;}.cls-40{fill:#0053a2;}.cls-41{fill:#0052a2;}.cls-42{fill:#005ca6;}.cls-43{fill:#fefefe;}.cls-44{fill:#fcfdfd;}.cls-45{fill:#fafcfc;}.cls-46{fill:#0f5fa9;}.cls-47{fill:#115fa9;}.cls-48{fill:#014f9f;}.cls-49{fill:#0151a1;}.cls-50{fill:#0052a1;}.cls-51{fill:#fafbfc;}.cls-52{fill:#fdfefd;}.cls-53{fill:#dae7f1;}.cls-54{fill:#cddeed;}.cls-55{fill:#256eb1;}.cls-56{fill:#2169ae;}.cls-57{fill:#3979b7;}.cls-58{fill:#2a73b4;}.cls-59{fill:#0152a2;}.cls-60{fill:#f8fafc;}.cls-61{fill:#ebf2f7;}.cls-62{fill:#f1f5f9;}.cls-63{fill:#eff4f8;}.cls-64{fill:#2868ad;}.cls-65{fill:#0050a1;}.cls-66{fill:#2d6eb1;}.cls-67{fill:#80add3;}.cls-68{fill:#1767ad;}.cls-69{fill:#2f74b4;}.cls-70{fill:#1c66ac;}.cls-71{fill:#fdfefe;}.cls-72{fill:#1667ad;}.cls-73{fill:#1f68ad;}.cls-74{fill:#1361aa;}.cls-75{fill:#004c9f;}.cls-76{fill:#226aaf;}.cls-77{fill:#2972b3;}.cls-78{fill:#004b9e;}.cls-79{fill:#1b6aaf;}.cls-80{fill:#2366ad;}.cls-81{fill:#2970b2;}.cls-82{fill:#2468ad;}.cls-83{fill:#0584c5;}.cls-84{fill:#0684c5;}.cls-85{fill:#fbfcfd;}.cls-86{fill:#085ea8;}.cls-87{fill:#0053a3;}.cls-88{fill:#d0e1ee;}.cls-89{fill:#fdfefc;}.cls-90{fill:#065ba7;}.cls-91{fill:#1f69ae;}.cls-92{fill:#045ca7;}.cls-93{fill:#1965ac;}.cls-94{fill:#669cc9;}.cls-95{letter-spacing:-0.03em;}.cls-96{letter-spacing:-0.02em;}.cls-97{letter-spacing:-0.01em;}.cls-98{letter-spacing:-0.01em;}.cls-99{letter-spacing:-0.02em;}.cls-100{letter-spacing:0em;}.cls-101{letter-spacing:0em;}.cls-102{letter-spacing:0.04em;}.cls-103{letter-spacing:-0.04em;}.cls-104{letter-spacing:1.08em;}.cls-105{letter-spacing:-0.06em;}.cls-106{letter-spacing:-0.01em;}.cls-108{letter-spacing:-0.04em;}.cls-110{letter-spacing:0.02em;}.cls-111{letter-spacing:-0.02em;}.cls-112{letter-spacing:-0.05em;}.cls-113{letter-spacing:0.02em;}.cls-114{letter-spacing:-0.01em;}.cls-116{fill:#5f88c1;}.cls-117{fill:#225baa;}</style></defs><title>drillpress</title><rect class="cls-1" x="0.5" y="0.5" width="800" height="1400"/><rect class="cls-2" x="37.96" y="133.88" width="700" height="1183.62"/><rect class="cls-3" x="37.96" y="133.88" width="257.1" height="50"/><rect class="cls-3" x="37.96" y="333.88" width="700" height="50"/><rect class="cls-3" x="37.96" y="583.88" width="700" height="50"/><rect class="cls-3" x="37.96" y="1159.85" width="700" height="50"/><rect class="cls-3" x="37.96" y="1209.85" width="700" height="50"/><line class="cls-2" x1="295.06" y1="182.88" x2="737.96" y2="182.88"/><text class="cls-4" transform="translate(335.57 92.5)">Safe Work Procedure</text><text class="cls-5" transform="translate(40.07 126.15)">N<tspan class="cls-6" x="11.7" y="0">O</tspan><tspan x="23.06" y="0">TE: DO N</tspan><tspan class="cls-6" x="89.82" y="0">O</tspan><tspan x="101.19" y="0">T use this ma</tspan><tspan class="cls-7" x="204.24" y="0">c</tspan><tspan x="212.71" y="0">hine unless </tspan><tspan class="cls-8" x="304.71" y="0">y</tspan><tspan x="312.37" y="0">ou h</tspan><tspan class="cls-6" x="345.86" y="0">a</tspan><tspan class="cls-9" x="355.37" y="0">v</tspan><tspan x="363.21" y="0">e been trained in its sa</tspan><tspan class="cls-9" x="538.68" y="0">f</tspan><tspan x="544.21" y="0">e use and operation. </tspan></text><text class="cls-10" transform="translate(47.86 163.51)">Description of <tspan class="cls-11" x="145.33" y="0">W</tspan><tspan x="163.62" y="0">ork:</tspan></text><text class="cls-12" transform="translate(314.72 163.53)">Using a Drill Press</text><line class="cls-13" x1="387.96" y1="183.88" x2="387.96" y2="333.88"/><text class="cls-14" transform="translate(397.05 216.41)"><tspan class="cls-15">P</tspan><tspan x="11.34" y="0">otential Hazards:</tspan><tspan class="cls-16" x="156.02" y="0" xml:space="preserve"> Exposed m</tspan><tspan class="cls-17" x="244.81" y="0">o</tspan><tspan class="cls-16" x="254.11" y="0">ving pa</tspan><tspan class="cls-18" x="309.51" y="0">r</tspan><tspan class="cls-16" x="315.83" y="0">ts </tspan><tspan class="cls-16"><tspan x="0" y="24">and electrical hazard with the p</tspan><tspan class="cls-19" x="241.63" y="24">o</tspan><tspan class="cls-20" x="251.06" y="24">t</tspan><tspan x="256.61" y="24">ential </tspan><tspan class="cls-21" x="304.63" y="24">t</tspan><tspan x="310.1" y="24">o </tspan><tspan x="0" y="48">cause harm th</tspan><tspan class="cls-22" x="111.11" y="48">r</tspan><tspan x="116.97" y="48">ough entanglement, impact </tspan><tspan x="0" y="72">and cutting, </tspan><tspan class="cls-6" x="95.68" y="72">e</tspan><tspan x="104.9" y="72">xposure </tspan><tspan class="cls-21" x="169.85" y="72">t</tspan><tspan x="175.32" y="72">o heat, dust, </tspan><tspan x="0" y="96">p</tspan><tspan class="cls-22" x="9.69" y="96">r</tspan><tspan x="15.56" y="96">ojectiles and sha</tspan><tspan class="cls-19" x="145.35" y="96">r</tspan><tspan x="151.23" y="96">p objects.</tspan></tspan></text><text class="cls-23" transform="translate(47 363.14)"><tspan class="cls-24">P</tspan><tspan x="11.3" y="0">e</tspan><tspan class="cls-25" x="21.86" y="0">r</tspan><tspan x="28.79" y="0">sonal Protecti</tspan><tspan class="cls-24" x="147.79" y="0">v</tspan><tspan x="156.63" y="0">e E</tspan><tspan class="cls-26" x="182.17" y="0">q</tspan><tspan x="192.89" y="0">uipment (PPE) </tspan><tspan class="cls-15" x="315.76" y="0">R</tspan><tspan x="327.94" y="0">e</tspan><tspan class="cls-26" x="338.49" y="0">q</tspan><tspan x="349.22" y="0">uired (Che</tspan><tspan class="cls-27" x="435.38" y="0">c</tspan><tspan x="445.02" y="0">k the b</tspan><tspan class="cls-28" x="502.8" y="0">o</tspan><tspan x="513.18" y="0">x for re</tspan><tspan class="cls-26" x="574.18" y="0">q</tspan><tspan x="584.9" y="0">uired PPE):</tspan></text><text class="cls-23" transform="translate(47 612.89)">Sa<tspan class="cls-19" x="21.49" y="0">f</tspan><tspan x="28.46" y="0">e </tspan><tspan class="cls-11" x="43.51" y="0">W</tspan><tspan x="59.19" y="0">ork Procedure Che</tspan><tspan class="cls-27" x="216.22" y="0">c</tspan><tspan x="225.85" y="0">kli</tspan><tspan class="cls-7" x="246.83" y="0">s</tspan><tspan class="cls-29" x="256.46" y="0">t</tspan><tspan x="263.63" y="0">:</tspan></text><text class="cls-23" transform="translate(47 1184.11)">Co<tspan class="cls-30" x="22.01" y="0">m</tspan><tspan x="37.55" y="0">petent </tspan><tspan class="cls-24" x="97.66" y="0">P</tspan><tspan x="108.97" y="0">e</tspan><tspan class="cls-25" x="119.52" y="0">r</tspan><tspan x="126.46" y="0">son(s): </tspan><tspan class="cls-31" x="186.81" y="0">(The </tspan><tspan class="cls-32" x="211.93" y="0">f</tspan><tspan class="cls-31" x="215.6" y="0">oll</tspan><tspan class="cls-33" x="227.82" y="0">o</tspan><tspan class="cls-31" x="234.06" y="0">wing pe</tspan><tspan class="cls-34" x="273.83" y="0">r</tspan><tspan class="cls-31" x="277.95" y="0">sons are authorised </tspan><tspan class="cls-35" x="382.25" y="0">t</tspan><tspan class="cls-31" x="385.9" y="0">o opera</tspan><tspan class="cls-36" x="424.81" y="0">t</tspan><tspan class="cls-31" x="428.51" y="0">e, supe</tspan><tspan class="cls-37" x="465.37" y="0">r</tspan><tspan class="cls-31" x="469.64" y="0">vise and </tspan><tspan class="cls-36" x="515.09" y="0">t</tspan><tspan class="cls-31" x="518.79" y="0">est students on the </tspan><tspan class="cls-31"><tspan x="0" y="17">equipment/p</tspan><tspan class="cls-22" x="67.97" y="17">r</tspan><tspan x="71.88" y="17">ocess).</tspan></tspan></text><text class="cls-38" transform="translate(76.8 284.39)">Drill Press</text><line class="cls-2" x1="137.96" y1="383.88" x2="137.96" y2="583.88"/><line class="cls-2" x1="237.96" y1="383.88" x2="237.96" y2="583.88"/><line class="cls-2" x1="337.96" y1="383.88" x2="337.96" y2="583.88"/><line class="cls-2" x1="437.96" y1="383.88" x2="437.96" y2="583.88"/><line class="cls-2" x1="537.96" y1="383.88" x2="537.96" y2="583.88"/><line class="cls-2" x1="637.96" y1="383.88" x2="637.96" y2="583.88"/><path class="cls-39" d="M53.64,423.58a17.3,17.3,0,0,1,0,7.13A35.39,35.39,0,0,1,53.64,423.58Z" transform="translate(0.5 0.5)"/><path class="cls-40" d="M84,404.75a.2.2,0,0,1,.13.28v8.35C83.88,410.5,83.35,407.62,84,404.75Z" transform="translate(0.5 0.5)"/><path class="cls-41" d="M91.56,401.24a.21.21,0,0,1,.13-.26c.67,2.49.1,5,.33,7.49h-.46Z" transform="translate(0.5 0.5)"/><path class="cls-40" d="M96.44,409.88l.09-5.14c.69,1.72.33,3.49.21,5.25a.36.36,0,0,1-.16,0S96.49,409.92,96.44,409.88Z" transform="translate(0.5 0.5)"/><path class="cls-42" d="M52.55,422.65c.89-14.31,12.71-27.52,27.29-30.49,19.53-4,37.57,7.7,41.79,27.07,4.1,18.82-9.2,38.17-28.25,41.12-19.28,3-36-8.21-40.31-27.05-.27-1.15-.35-2.35-.51-3.52A43.52,43.52,0,0,0,52.55,422.65Z" transform="translate(0.5 0.5)"/><path class="cls-43" d="M84.51,423.74A47.27,47.27,0,0,0,82.24,418c-.79-1.46.18-2,1-2.5,1-.57,1.77.12,2.19,1.11,1.11,2.59,2.21,5.18,3.32,7.78,3.19,7.47,6.36,14.95,9.59,22.41.49,1.14.55,1.64-.91,2a78.52,78.52,0,0,0-16.08,5.71c-.93.45-1.35.42-1.73-.65q-5.16-14.73-10.42-29.41a2,2,0,0,1,1.11-2.78c1.24-.53,2.16,0,2.65,1.3.81,2.07,1.65,4.13,2.46,6.2.17.46.18,1.3.77,1.12,1-.29.17-1.06,0-1.5-.9-3-2.44-5.8-3.21-8.87-.29-1.16-.42-2.17.89-2.66s1.83.63,2.23,1.62c1,2.35,1.87,4.71,2.85,7.05.16.39.26,1.12,1,.82s.15-.91,0-1.19c-1-2.73-2.4-5.29-3.2-8.1-.39-1.37-.26-2.4,1.19-2.85s2.06.45,2.54,1.6c1.15,2.79,2.33,5.57,3.5,8.35C84.89,424.7,84.72,424.23,84.51,423.74Z" transform="translate(0.5 0.5)"/><path class="cls-44" d="M82.9,403.82c-1.67-.81-2.28-.5-2.31,1.32,0,2.81,0,5.62,0,8.5-1.41,0-1.84-.56-1.79-1.74.11-2.32,0-4.64.11-7s1.18-3.4,3.37-3.38a1.38,1.38,0,0,0,1.41-.85,3.32,3.32,0,0,1,4.17-1.63,1.37,1.37,0,0,0,1.6-.41c2.09-1.78,4.63-1.22,5.61,1.32.36.91.77.84,1.51.78,2.43-.17,3.85,1.09,3.8,3.53A129,129,0,0,0,104.1,438c.21.85.09,1.19-.86,1.35a36,36,0,0,0-4.94,1.12c-.93.29-1.1-.22-1.33-.8-.3-.77.31-.8.79-.93a8.6,8.6,0,0,1,2.17-.57c2.2,0,2.19-1.14,1.82-2.85a122.81,122.81,0,0,1-3.11-29.85c0-.44,0-.88,0-1.31-.06-.89-.4-1.68-1.35-1.79a1.47,1.47,0,0,0-1.82,1.41,13.27,13.27,0,0,1-.1,5.14c-1.22,1-1.81.59-1.82-.85,0-2.26,0-4.52.07-6.78a1.72,1.72,0,0,0-1-1.82,1.39,1.39,0,0,0-1.94.56c.1.16,0,.24-.13.25-.61,1-.24,2.07-.28,3.11-.07,1.63,0,3.26,0,4.9,0,.73.15,1.75-.91,1.72s-.93-1-.93-1.77c0-1.82,0-3.64,0-5.46,0-1.07-.31-1.93-1.49-2s-1.65.86-1.66,2q-.06,4.43-.17,8.85c0,.66.09,1.57-.93,1.51s-.77-.95-.81-1.61c-.14-2.49.29-5-.25-7.47-.12,0-.19-.06-.18-.14S82.87,403.82,82.9,403.82Z" transform="translate(0.5 0.5)"/><path class="cls-45" d="M93.13,430.18c.59-3,1.22-6,1.76-9a3.24,3.24,0,0,0-1.32-3.31,1.86,1.86,0,0,0-3.07.75c-.48,1-.82,2.09-1.24,3.15a3.94,3.94,0,0,1,.72-5.23,3.37,3.37,0,0,1,4.61-.16,5.2,5.2,0,0,1,2,5.18c-.61,4.17-1.36,8.33-2.06,12.59-.92-.54-.92-1.44-1.34-2.08A2.54,2.54,0,0,1,93.13,430.18Z" transform="translate(0.5 0.5)"/><path class="cls-46" d="M93.13,430.18l0,1.88A1.3,1.3,0,0,1,93.13,430.18Z" transform="translate(0.5 0.5)"/><path class="cls-47" d="M84.51,423.74c.29.38.71.82.28,1.24s-.6-.07-.76-.41A.88.88,0,0,0,84.51,423.74Z" transform="translate(0.5 0.5)"/><path class="cls-42" d="M152.46,422.82c.78-13.27,11.31-26,24.81-30a35.13,35.13,0,1,1,14.32,68.54c-19.51,2.32-37.37-11.78-39.12-30.89A49.1,49.1,0,0,0,152.46,422.82Z" transform="translate(0.5 0.5)"/><path class="cls-43" d="M202.77,443.49c-.42,1.44-.11,2.92-.19,4.39a4,4,0,0,1-4.29,4.16q-8,0-16,0c-2.91,0-4.44-1.57-4.53-4.54-.09-3.2-.09-3.21-3.36-2.78a23.68,23.68,0,0,0-3,.44c-1.73.47-2.66-.16-3.46-1.73a27.57,27.57,0,0,1-2.77-17.71c.16-.92.22-2,1.6-2,.71,0,.6-.72.72-1.18.62-2.49,1.17-5,1.85-7.46a20.27,20.27,0,1,1,36.9,15.7,23.59,23.59,0,0,0-3.39,10.89A1.85,1.85,0,0,1,202.77,443.49Z" transform="translate(0.5 0.5)"/><path class="cls-48" d="M202.77,443.49a3.48,3.48,0,0,1,.08-1.81c.8,2.29.13,4.61.39,6.9h-.47Z" transform="translate(0.5 0.5)"/><path class="cls-42" d="M189,402a18.35,18.35,0,0,1,18,15.6c.15,1.09,0,1.71-1.23,2.07-7.82,2.25-15.61,4.59-23.4,6.93a1.67,1.67,0,0,1-2.24-.67,4.85,4.85,0,0,0-4.05-1.85c-1.86-.07-3.72-.14-5.58-.17-.86,0-1.29-.13-1-1.21.71-2.52,1.17-5.12,1.91-7.64A18.23,18.23,0,0,1,189,402Z" transform="translate(0.5 0.5)"/><path class="cls-42" d="M192,437c-2.63,0-5.26-.05-7.88,0-1.07,0-1.53-.34-1.57-1.35a1.48,1.48,0,0,0,0-.19c-.18-2-1.49-4.29-.59-5.75s3.53-1.39,5.41-2c6.07-1.82,12.16-3.55,18.2-5.43,1.64-.51,1.68,0,1.37,1.34a20.33,20.33,0,0,1-2.11,5.54,27,27,0,0,0-2.78,6.3,1.49,1.49,0,0,1-1.76,1.26c-2.76-.06-5.51,0-8.26,0Z" transform="translate(0.5 0.5)"/><path class="cls-42" d="M180.9,449.66a.88.88,0,0,1-.69-.69,17.23,17.23,0,0,1,.14-5.07,4.37,4.37,0,0,0,2.8-3.78c0-.75.42-.78,1-.79,5.23-.08,10.47-.15,15.71-.27,1,0,1.17.41,1,1.28a43,43,0,0,0-.32,7.26c0,.95-.16,1.79-1.21,2.13C193.2,449.73,187.05,449.86,180.9,449.66Z" transform="translate(0.5 0.5)"/><path class="cls-49" d="M180.9,449.66c.49-.43,1.09-.28,1.66-.28h15.17c.56,0,1.17-.16,1.62.35a4.07,4.07,0,0,1-1.07.32q-8.07,0-16.13,0A2,2,0,0,1,180.9,449.66Z" transform="translate(0.5 0.5)"/><path class="cls-50" d="M180.35,443.9a11.72,11.72,0,0,1-.14,5.07C179.68,447.26,179.36,445.57,180.35,443.9Z" transform="translate(0.5 0.5)"/><path class="cls-51" d="M179.09,419.28c-.11,1.43-.85,2.31-2.28,2.3a2.06,2.06,0,0,1-2.21-2.15,2.09,2.09,0,0,1,2.16-2.38C178.22,417,178.94,417.89,179.09,419.28Z" transform="translate(0.5 0.5)"/><path class="cls-42" d="M322.46,429.32c-.7,14.94-12.9,28.81-27.82,31.63-19.72,3.72-37.6-8.21-41.71-27.87-.25-1.23-.31-2.51-.47-3.76a29.24,29.24,0,0,0,0-5.69c1.1-17.81,16.73-32.26,34.9-32.25,18.36,0,34.1,14.47,35.09,32.25A24.61,24.61,0,0,0,322.46,429.32Z" transform="translate(0.5 0.5)"/><path class="cls-52" d="M287.35,453.12c-5.76.21-9.74-2.38-12.78-6.68a25.92,25.92,0,0,1-3.64-7.92c-.23-.81-.45-1.43-1.55-1.54-1.72-.17-2.77-1.45-3.61-2.83a20.45,20.45,0,0,1-2.61-8.87,3.24,3.24,0,0,1,2.36-3.7c1-.28,1.06-.81,1-1.63a24,24,0,0,1,1.27-8.61c3.44-10.14,14.5-15.45,25.58-12.31C302.7,401.66,308,409,308,419.27c0,1.16-.17,2.08,1.44,2.51s2.11,2,1.95,3.56a21.58,21.58,0,0,1-2.25,8.21c-1,1.77-2.16,3.34-4.4,3.51-.91.07-.87.79-1.05,1.36A27.78,27.78,0,0,1,300,446.5C296.8,450.92,292.68,453.48,287.35,453.12Z" transform="translate(0.5 0.5)"/><path class="cls-42" d="M302.69,421.65c-.67.53-.23,1.25-.33,1.88a1.11,1.11,0,0,1,.54.92,28.5,28.5,0,0,0-.06,3.95c1-1.4.8-3,1.13-4.36.09-.39-.32-.74-.11-1.15.69-.33,1.53-1.58,1.66.49.07,1,1.06,1,1.76.49,1.31-1,1.83-.13,1.84.89a13.17,13.17,0,0,1-3.69,9.67c-.31.32-.67.64-1.15.34-1.63-1-1.95.15-2.25,1.33a25.21,25.21,0,0,1-4.95,10.36c-1.92,2.27-4.2,4-7.35,4.2a14.63,14.63,0,0,0-4.94,0c-3-.18-5.21-1.8-7.09-3.94a25.16,25.16,0,0,1-5.14-10.46c-.3-1.19-.47-2.56-2.3-1.48-.76.44-1.15-.34-1.53-.77a13.64,13.64,0,0,1-3.32-8.69c-.09-1.74.37-2,2-1.32s1.63-.7,1.74-1.8c1.2.07,1.86,1.21,3,1.38.6-.08.81.37.84.8.13,1.62.4,3.25-.25,4.83-.93-.26-.9-.26-1-1.38s.33-2.26-.89-3.48a10.35,10.35,0,0,0,1.08,5c.33.54,1.11,0,1.43.6a5.88,5.88,0,0,0,6.15,3.48,5.06,5.06,0,0,0,5.09-4.65,25.39,25.39,0,0,0-.36-5.84c-.1-.93-.8-1-1.53-1.05-1.89,0-3.79,0-5.68,0-1-.18-2.2.38-3-.73.28-.75,1-.46,1.52-.63a8.15,8.15,0,0,0,1.13-.12c-.64-.3-1.2.14-1.8.15-1.63.12-3.22-.38-4.85-.3-1,.33-1.29-.2-1.26-1.11.41-10.69,6.81-17.47,16.9-18.74,9.23-1.16,18,5.64,19.66,15,.2,1.12.26,2.27.43,3.4s-.31,1.79-1.53,1.8c-1.94-.61-3.87.37-5.78,0h.1a10.81,10.81,0,0,1,4,.56A.36.36,0,0,1,302.69,421.65Z" transform="translate(0.5 0.5)"/><path class="cls-53" d="M298.2,420.23l5.1-.45c.56,0,1.23-.21.94.78l-.15,0-.15,0a1.85,1.85,0,0,1-1.26.57c-1.52.56-3-.42-4.45-.23C297.89,420.68,297.91,420.46,298.2,420.23Z" transform="translate(0.5 0.5)"/><path class="cls-54" d="M276,420.87l-1.83.17a2.52,2.52,0,0,1-1.17.54,1.14,1.14,0,0,1-.75-.07c-.66-.35-1.34-.66-2-1.07a.7.7,0,0,1-.22-.2c.53-1,1.4-.37,2.09-.37a27.67,27.67,0,0,1,3.14.25.83.83,0,0,1,.81,0A.53.53,0,0,1,276,420.87Z" transform="translate(0.5 0.5)"/><path class="cls-55" d="M272.27,429.33c.36-1.93.67-3.85-.12-5.75l.08-1.5c.34-.51.69-.65,1,0,.21,2.57.82,5.16-.37,7.67-.36.1-.7.63-1.1.06A.47.47,0,0,1,272.27,429.33Z" transform="translate(0.5 0.5)"/><path class="cls-56" d="M302.69,424.3l-.33-.77,1.5-.64c.16.34.7.33.71.8C304,424,303.5,424.68,302.69,424.3Z" transform="translate(0.5 0.5)"/><path class="cls-57" d="M270.26,420.44a2.37,2.37,0,0,1,2,.87c0,.24-.24.27-.39.37C271.25,421.34,270.47,421.26,270.26,420.44Z" transform="translate(0.5 0.5)"/><path class="cls-58" d="M302.68,421.12a1.38,1.38,0,0,1,1.26-.57,1.57,1.57,0,0,1-1.25,1.1Z" transform="translate(0.5 0.5)"/><path class="cls-59" d="M271.84,421.68l.39-.37.65,0c.42-.16.79-.23.93.35a.53.53,0,0,1-.78.11l-.8.34Z" transform="translate(0.5 0.5)"/><path class="cls-42" d="M273,414.64c0-.77,0-1.53,0-2.29s.23-1.48,1.15-1.75a3,3,0,0,0,2.19-2.18,1.08,1.08,0,0,1,1.08-.85,2.18,2.18,0,0,0,1.86-1.71c.38-1.93,1.74-1.71,3.05-1.67,2.62.09,5.23.28,7.85.35a16,16,0,0,0,3.77-.23c1-.22,2.25-.18,2.31,1.44,0,.48.23.95.71,1,2.7.26,2.67,2.29,2.68,4.19,0,1.53.44,2.47,2.14,2.4.49,0,1,.16.82.73s.13,1.26,0,1.84c-.26,1.57-.13,2.95-2.88,2.54-3.68-.54-7.53.19-11.31.18-4.55,0-9.1-.26-13.66-.33-1.27,0-1.91-.42-1.81-1.76C273,415.91,273,415.27,273,414.64Z" transform="translate(0.5 0.5)"/><path class="cls-60" d="M300,421.63l1.47.1a36,36,0,0,1,.09,8.37c-1.44,4.08-5.51,4.39-8.31,3.59a5.12,5.12,0,0,1-3.8-5.28c0-1.9.17-3.79.16-5.69,0-1,.42-1.33,1.35-1.32,2.09,0,4.18,0,6.27,0C298.16,421.73,299.12,421.35,300,421.63Z" transform="translate(0.5 0.5)"/><path class="cls-60" d="M273,421.74l.68-.08c1.17-.38,2.4.11,3.56-.28,2,0,4.06,0,6.08,0,1.08,0,1.62.28,1.57,1.51-.06,1.51.11,3,.14,4.56.1,3.72-1.42,5.88-4.49,6.44-3.83.7-6.37-.69-7.66-4.16Z" transform="translate(0.5 0.5)"/><path class="cls-61" d="M302.69,424.3c.66-.1,1.07-1,1.88-.61-.47,2-.28,4.29-2.24,6.48C302.42,427.88,302.09,426.09,302.69,424.3Z" transform="translate(0.5 0.5)"/><path class="cls-62" d="M272.27,429.33l-.46.46c-1.38-1.8-1.5-3.93-1.72-6.23,1.46.39,2.22,1,2.11,2.56A31.33,31.33,0,0,0,272.27,429.33Z" transform="translate(0.5 0.5)"/><path class="cls-53" d="M287.91,423.65c.27.66,1.65,1.06.77,1.91a2.36,2.36,0,0,1-2.64.1c-1-.7-.24-1.32.58-1.68C287,423.5,287.33,423.21,287.91,423.65Z" transform="translate(0.5 0.5)"/><path class="cls-63" d="M287.91,423.65l-1.29.33c-.2-.5-1.33-.32-.95-1.27.29-.73,1-.81,1.58-.82s1.33.06,1.57.81S288.59,423.69,287.91,423.65Z" transform="translate(0.5 0.5)"/><path class="cls-56" d="M301.59,430.1a68.76,68.76,0,0,0-.09-8.37A17.3,17.3,0,0,1,301.59,430.1Z" transform="translate(0.5 0.5)"/><path class="cls-64" d="M277.27,421.38a11.2,11.2,0,0,1-3.56.28l-.83-.38a1.59,1.59,0,0,1,1.27-.24C275.13,421.66,276.25,421.08,277.27,421.38Z" transform="translate(0.5 0.5)"/><path class="cls-65" d="M276,420.24l-.72-.12a2.4,2.4,0,0,1,2.11-.24c.56.09.42.46,0,.73A2.11,2.11,0,0,1,276,420.24Z" transform="translate(0.5 0.5)"/><path class="cls-66" d="M298.2,420.23l0,.66c-.5,0-1.33.41-1.34-.4C296.89,420,297.72,420.21,298.2,420.23Z" transform="translate(0.5 0.5)"/><path class="cls-67" d="M276,420.24a1.46,1.46,0,0,1,1.42.37c-.4.5-.93.31-1.43.26Z" transform="translate(0.5 0.5)"/><path class="cls-66" d="M300,421.63a7.21,7.21,0,0,1-2.77-.25C298.19,421.33,299.15,421.05,300,421.63Z" transform="translate(0.5 0.5)"/><path class="cls-43" d="M297.06,431.65l-2.86,0c-.64.47-1.13,0-1.65-.26a2.88,2.88,0,0,1-1.28-2.36,43.82,43.82,0,0,1,.12-5.25.92.92,0,0,1,.48-.47c2.18-.22,4.37,0,6.56-.1a2,2,0,0,1,1.32.31c.58,1.65.15,3.35.27,5a3.75,3.75,0,0,1-.94,2.27C298.57,431.52,298,432.06,297.06,431.65Z" transform="translate(0.5 0.5)"/><path class="cls-68" d="M298.82,430.84l.9-1.9c.1-1.77.43-3.54-.18-5.28l-1.05-.09a26.11,26.11,0,0,0-6.84.07l0,0a18.79,18.79,0,0,0-.09,5.7,3.5,3.5,0,0,0,1.2,2c0,.34,0,.57-.45.36-1.4-.83-1.55-2.18-1.55-3.62,0-5.46,0-5.46,5.38-5.28,4.31.14,4.31.14,4.31,4.55,0,1.31,0,2.64-1.11,3.59A.37.37,0,0,1,298.82,430.84Z" transform="translate(0.5 0.5)"/><path class="cls-39" d="M294.38,432a4.72,4.72,0,0,1,2.85.6,6,6,0,0,1-3.66-.24C293.58,431.64,294,431.8,294.38,432Z" transform="translate(0.5 0.5)"/><path class="cls-69" d="M298.82,430.84l.54.06c-.91,1.58-1.46,1.76-2.3.75C297.79,431.69,298.23,431.12,298.82,430.84Z" transform="translate(0.5 0.5)"/><path class="cls-70" d="M294.38,432l-.81.36a1.7,1.7,0,0,1-1.24-.67l.45-.36,1.42.38A1.75,1.75,0,0,0,294.38,432Z" transform="translate(0.5 0.5)"/><path class="cls-71" d="M283.26,429.93v0a7.7,7.7,0,0,1-1.51,1.66,2.64,2.64,0,0,1-1.67.51,9.49,9.49,0,0,1-2.44,0,3.42,3.42,0,0,1-2.21-1.07,4.25,4.25,0,0,1-.94-2.39c0-1.27,0-2.53,0-3.79,0-1,.36-1.58,1.43-1.55,2.19,0,4.39-.09,6.58.06a1,1,0,0,1,.55.37c.42,1.75.09,3.52.2,5.27C283.26,429.28,283.25,429.6,283.26,429.93Z" transform="translate(0.5 0.5)"/><path class="cls-72" d="M283.26,429.93c-.26-.13-.41-.3-.3-.61a21.33,21.33,0,0,0-.08-5.7h0a29.07,29.07,0,0,0-6.85-.05c-.82,0-1.23.32-1.18,1.25.07,1.38,0,2.77-.05,4.16-.24.1-.4,0-.47-.24-.05-1.5,0-3,0-4.51-.21-1.09.57-1.17,1.31-1.3,2.27-.06,4.53-.09,6.8-.19,1,0,1.41.34,1.28,1.32C283.42,426,284.42,428,283.26,429.93Z" transform="translate(0.5 0.5)"/><path class="cls-73" d="M275.66,430.82c.62.23,1,.87,1.8.83.51.33,1.11,0,1.63.27a.58.58,0,0,1,0,.77,3.92,3.92,0,0,1-3.79-1.47A.45.45,0,0,1,275.66,430.82Z" transform="translate(0.5 0.5)"/><path class="cls-74" d="M274.49,424c0,1.66,0,3.32,0,5a.56.56,0,0,1-.06.83c-.73-1.91-.23-3.87-.27-5.81C274.28,423.83,274.38,423.83,274.49,424Z" transform="translate(0.5 0.5)"/><path class="cls-75" d="M274.44,429.81l.06-.83h.3a4.19,4.19,0,0,0,.86,1.85l-.37.4A1.73,1.73,0,0,1,274.44,429.81Z" transform="translate(0.5 0.5)"/><path class="cls-76" d="M281.73,431.23c.49-.47.73-1.24,1.54-1.34a1.74,1.74,0,0,1-1,1.79C281.81,431.82,281.69,431.62,281.73,431.23Z" transform="translate(0.5 0.5)"/><path class="cls-77" d="M281.73,431.23l.5.45a1.58,1.58,0,0,1-1.27.67c-.23-.25-.66-.05-.85-.38s0-.28.23-.3Z" transform="translate(0.5 0.5)"/><path class="cls-78" d="M280.16,432l.8.38a3.59,3.59,0,0,1-1.88.34v-.63C279.41,431.69,279.78,431.79,280.16,432Z" transform="translate(0.5 0.5)"/><path class="cls-79" d="M274.49,424h-.32c-.24-1.34.68-1.11,1.45-1.08C275.31,423.35,274.42,423.17,274.49,424Z" transform="translate(0.5 0.5)"/><path class="cls-80" d="M291.65,423.64a13.05,13.05,0,0,1,6.85-.07C296.22,423.68,293.93,423.26,291.65,423.64Z" transform="translate(0.5 0.5)"/><path class="cls-80" d="M291.58,429.32a9.4,9.4,0,0,1,.09-5.7Z" transform="translate(0.5 0.5)"/><path class="cls-81" d="M299.54,423.66c.88,1.73.6,3.5.18,5.28Z" transform="translate(0.5 0.5)"/><path class="cls-82" d="M276,423.56a13.59,13.59,0,0,1,6.85.05Z" transform="translate(0.5 0.5)"/><path class="cls-66" d="M282.88,423.62a9.71,9.71,0,0,1,.08,5.7C282.93,427.42,282.9,425.52,282.88,423.62Z" transform="translate(0.5 0.5)"/><path class="cls-60" d="M280.16,432l-1.08.09c-.53-.18-1.16.05-1.62-.41l2.88,0Z" transform="translate(0.5 0.5)"/><path class="cls-42" d="M387.4,391.39c18.89-.31,35.89,15.85,35,36.56a35,35,0,0,1-70-1.67C352.44,407,368.32,391.19,387.4,391.39Z" transform="translate(0.5 0.5)"/><path class="cls-43" d="M369.54,431.94v-7.82c0-1.24,0-1.24,1.2-1.24h7.13c1.21,0,1.49-.27,1.5-1.44,0-2.64,0-5.27,0-7.91,0-1.06-.4-1.43-1.46-1.44-2.55,0-5.1,0-7.65,0-.54,0-.76-.13-.73-.71.06-1.57,0-3.13.2-4.7a5.81,5.81,0,0,1,5.31-4.53c4.52,0,9,0,13.57,0a2.3,2.3,0,0,1,1,.12c1.79.89,3.78.75,5.66,1.11a17.9,17.9,0,0,1,13,9.64,17.56,17.56,0,0,1,2.06,8.21,17.19,17.19,0,0,1-2.44,9.15,24.78,24.78,0,0,0-3.43,10.93c-.12,1.74-.21,3.47-.21,5.22a3.44,3.44,0,0,1-3.56,3.56h-15.2a3.41,3.41,0,0,1-3.41-2.86c-.12-.79-.37-1.09-1.23-1.06-2,.08-4.07,0-6.1,0a5.39,5.39,0,0,1-5-4.1,35.34,35.34,0,0,1-.28-6.5C369.51,434.4,369.54,433.17,369.54,431.94Z" transform="translate(0.5 0.5)"/><path class="cls-43" d="M374,422c-1.28,0-2.57,0-3.86,0-.78,0-.6-.46-.63-.89s0-.8.66-.79c2,0,3.95,0,5.92,0,.58,0,.8-.13.79-.75,0-1.63,0-3.26,0-4.89,0-.68-.22-.81-.84-.8-1.94,0-3.88,0-5.83,0-.4,0-.71,0-.71-.56s.28-.58.69-.57c2.52,0,5,0,7.55,0,.65,0,.91.19.9.89,0,2.51,0,5,0,7.54,0,.61-.18.8-.78.78C376.6,422,375.31,422,374,422Z" transform="translate(0.5 0.5)"/><path class="cls-42" d="M394.05,431.91c0-3.09,0-6.18,0-9.27,0-.63.14-.83.8-.82q6.45,0,12.89,0c.68,0,.8.23.78.83a14.61,14.61,0,0,1-2.21,7,26.82,26.82,0,0,0-3.68,12.86,38.06,38.06,0,0,0-.08,3.85,1.82,1.82,0,0,1-2,2H385.84c-1.25,0-1.74-.37-2-1.41-.14-.5-.1-.71.51-.69,1.57.05,3.15,0,4.72,0a5.37,5.37,0,0,0,5-5C394.06,438.1,394.05,435,394.05,431.91Z" transform="translate(0.5 0.5)"/><path class="cls-42" d="M393.4,405a13.41,13.41,0,0,1,5.27,1.29,16.55,16.55,0,0,1,9.22,10.46c.18.59.11.74-.51.73-4.21,0-8.41,0-12.61,0-.66,0-.73-.27-.73-.81,0-3,0-6,0-8.92A5.15,5.15,0,0,0,393.4,405Z" transform="translate(0.5 0.5)"/><path class="cls-83" d="M371.48,437.25c.81,0,1.14.42,1.17,1a1,1,0,0,1-1,1,.94.94,0,0,1-1-1A1,1,0,0,1,371.48,437.25Z" transform="translate(0.5 0.5)"/><path class="cls-84" d="M377.46,437.24a1,1,0,0,1,1,1,.93.93,0,0,1-1,1.05c-.54,0-1.07-.19-1.07-.93A1,1,0,0,1,377.46,437.24Z" transform="translate(0.5 0.5)"/><path class="cls-83" d="M375.52,438.32c.06.74-.44,1-1,1a.92.92,0,0,1-1-1,.94.94,0,0,1,1-1A.91.91,0,0,1,375.52,438.32Z" transform="translate(0.5 0.5)"/><path class="cls-42" d="M489.82,391.4c14.72.48,28.69,12.46,31.83,27.31,4.24,20-8.49,38.94-28.78,42.15a35,35,0,0,1-40.2-30.68c-1.95-18.61,9.95-34.7,28.32-38.35,1.29-.25,2.62-.3,3.94-.45A19.52,19.52,0,0,0,489.82,391.4Z" transform="translate(0.5 0.5)"/><path class="cls-43" d="M503.86,441.31c.28,1.11,0,2.29.55,3.4.34.71,0,1.25-1,1.24-5.29,0-10.58,0-15.87,0-1.49,0-2.66-1-3.93-1.71-.67-.35-1.31-.75-2-1.09-2.67-1.33-2.71-1.32-2.94,1.53-.07.9-.23,1.34-1.29,1.32-3.27-.07-6.55-.1-9.82,0-1.57,0-1.3-1-1.41-1.87-.8-5.76-1.77-11.53.56-17.2a2.27,2.27,0,0,0,0-.74,12.88,12.88,0,0,1,0-3.77c-.25-4.4-.47-8.8-.78-13.19-.08-1.14,0-1.67,1.41-1.64,5.16.09,10.33.08,15.49,0,1.32,0,1.57.45,1.52,1.62-.19,5.16-.29,10.32-.5,15.47a4.7,4.7,0,0,0,2,4.37,82.06,82.06,0,0,1,7.74,6.32c1.67,1.57,4,1.28,6.05,1.86-.06,1-1.1.57-1.5,1.05-.08.1-.18.3-.14.32,1.68,1.09,3.08,2.76,5.37,2.57A.62.62,0,0,1,503.86,441.31Z" transform="translate(0.5 0.5)"/><path class="cls-85" d="M483.2,399.57c-.8-.26-.86.27-.95.79-.24,1.37-.5,2.73-.77,4.09-.1.53-.07,1.28-.91,1.13s-.32-.81-.25-1.22c.26-1.75.64-3.47.86-5.22.14-1.13.66-1.24,1.64-1,5,1.21,10,2.42,15.08,3.51,1.34.3,1.31.86,1,1.93-1.38,4.91-2.63,9.86-4.06,14.75a4.73,4.73,0,0,0,.92,4.56c2.09,2.76,4.11,5.58,6.11,8.41a6,6,0,0,0,2.52,1.9c1.25.59,2.56,1.09,3.75,1.79,2.23,1.3,2.83,2.88,2.24,5.42a4.14,4.14,0,0,0-.25,1.1c.07.82.65,2.05-.25,2.28s-2.18-.33-3.28-.55c-.38-.08-.48-.35-.44-.7s.29-.63.62-.53c1.43.45,1.93-.37,2.22-1.53.34-1.4.43-2.74-.83-3.82a7.84,7.84,0,0,0-2.78-1.57,9.58,9.58,0,0,1-5.55-4.51,55.84,55.84,0,0,0-5.05-6.84,5.87,5.87,0,0,1-1.13-6c1.3-4.4,2.41-8.86,3.66-13.29.32-1.12.19-1.61-1.11-1.89-4.07-.86-8.09-1.9-12.14-2.86C483.78,399.67,483.47,399.62,483.2,399.57Z" transform="translate(0.5 0.5)"/><path class="cls-86" d="M503.5,441.31a3.18,3.18,0,0,1-.59.45,25.86,25.86,0,0,1-5.72-2.9c-.13-.52.19-.81.6-1,1.59-.25,3.16-.33,4.52.78l.53.49C503.2,439.79,504,440.36,503.5,441.31Z" transform="translate(0.5 0.5)"/><path class="cls-87" d="M504.11,446.51H487.23v-.19h16.94Z" transform="translate(0.5 0.5)"/><path class="cls-40" d="M478,446.56H466.86v-.18H478Z" transform="translate(0.5 0.5)"/><path class="cls-88" d="M502.31,438.61c-1.51-.22-2.91-1.14-4.52-.78.47-.67,1.37,0,1.87-.63C500.65,437.48,501.86,437.32,502.31,438.61Z" transform="translate(0.5 0.5)"/><path class="cls-49" d="M466.69,422.39a7.52,7.52,0,0,1,0,3.77A4.51,4.51,0,0,1,466.69,422.39Z" transform="translate(0.5 0.5)"/><path class="cls-89" d="M503.5,441.31c.12-.84-.64-1.41-.66-2.21,1,.43,1.09,1.28,1,2.21Z" transform="translate(0.5 0.5)"/><path class="cls-90" d="M481.18,439.77a3.42,3.42,0,0,1,1.95.64c4.05,2.6,8.5,3.17,13.19,2.84,1.75-.13,3.52,0,5.28,0,.45,0,1.11-.2,1.09.62s-.59.52-1,.52c-4.08,0-8.17,0-12.26,0a8.17,8.17,0,0,1-3.2-1l-5.5-2.47c-3.76-.28-7.52,0-11.28-.12h-1.32c-.41,0-.81-.12-.78-.59s.46-.53.86-.52C472.54,439.71,476.87,439.41,481.18,439.77Z" transform="translate(0.5 0.5)"/><path class="cls-91" d="M481.18,439.77H467.5c.55,1,1.18.75,1.67.76,3.26,0,6.52,0,9.78,0,.6,0,1.26-.19,1.79.31-4,0-8.07,0-12.1,0-.54,0-1.42.36-1.46-.66s.85-.71,1.4-.71c3.78,0,7.56,0,11.34,0A1.86,1.86,0,0,1,481.18,439.77Z" transform="translate(0.5 0.5)"/><path class="cls-42" d="M552.63,422.73a34.81,34.81,0,0,1,31.48-31.21c18.52-1.55,34.33,10.5,37.79,28.8,3.51,18.63-9.71,37.39-28.48,40.41-19.09,3.07-36.33-8.73-40.34-27.64-.25-1.16-.31-2.37-.46-3.56A41.73,41.73,0,0,0,552.63,422.73Z" transform="translate(0.5 0.5)"/><path class="cls-65" d="M552.63,422.73a16.4,16.4,0,0,1,0,6.8A35.93,35.93,0,0,1,552.63,422.73Z" transform="translate(0.5 0.5)"/><path class="cls-43" d="M566.76,413.64c.85.19,1.09-.32,1.2-1,1.22-7.58,7.27-12.2,15.25-12.85a34.24,34.24,0,0,1,11.5.51c6.43,1.68,10.66,5.53,12,12.19.13.61.06,1.34,1,1.18.76.87.26,1.9.37,2.84a10.62,10.62,0,0,0,.19,2.45c6.13,3.55,6.55,4.51,5,11.62-.3,1.36-.59,2.72-.9,4.07-1.06,4.55-3,6.32-7.71,6.51a3.11,3.11,0,0,0-3.27,2.26,19.62,19.62,0,0,1-5,7c-5.42,5-12.47,5.07-18,.2A20.82,20.82,0,0,1,573,443c-.52-1.24-1.07-1.92-2.58-1.83a8.09,8.09,0,0,1-3.87-.77,6,6,0,0,1-3.75-4.44c-.48-2.35-1.06-4.68-1.56-7-1.07-5.05-.13-7,4.36-9.42.32-.17.61-.4.92-.6C566.52,417.14,566,415.36,566.76,413.64Z" transform="translate(0.5 0.5)"/><path class="cls-39" d="M608.33,418.93c-.91-1-.28-2.18-.44-3.27-.1-.66-.08-1.34-.12-2,1,.52.5,1.44.55,2.18C608.4,416.85,608.33,417.89,608.33,418.93Z" transform="translate(0.5 0.5)"/><path class="cls-41" d="M566.76,413.64c-.33,1.74.17,3.53-.28,5.26C566.18,417.13,565.72,415.35,566.76,413.64Z" transform="translate(0.5 0.5)"/><path class="cls-42" d="M604.25,423.52c-.13,1.06-.24,2.13-.39,3.19,0,.34,0,.66-.51.87-1.29.55-2.09,2.91-1.34,4.05a1.87,1.87,0,0,1,.26,1.41c-.7,5.36-2.32,10.37-6,14.51-5.26,6-12.46,6-17.76.1-3.83-4.26-5.46-9.48-6.09-15-.12-1,.91-2,.25-3.13-.43-.74,0-2-1.46-2.09-.14,0-.31-.65-.36-1-1.54-11,5.68-19.61,14.26-20.9s16.79,4.85,18.61,13.88A20.66,20.66,0,0,1,604.25,423.52Z" transform="translate(0.5 0.5)"/><path class="cls-92" d="M590.28,402.17l1,.07c.61.4,1.36,0,2,.33a.21.21,0,0,1,.29,0c-.23.42-.18.66.34.78.26.06.57.34.37.68s-.51.2-.78.07l-4.11-.84a12.42,12.42,0,0,0-4.17,0,19.3,19.3,0,0,0-14.45,9.89c-.72,0-.53-.39-.41-.79.79-4.44,3.53-7.24,7.56-8.9a15.64,15.64,0,0,1,6.4-1.35A26.66,26.66,0,0,1,590.28,402.17Z" transform="translate(0.5 0.5)"/><path class="cls-92" d="M593.47,404.14c1-.23.33-.51,0-.61-1.73-.5.28-.6.09-.92,6.18.95,10.47,5.19,10.81,10.94A21.18,21.18,0,0,0,593.47,404.14Z" transform="translate(0.5 0.5)"/><path class="cls-93" d="M590.28,402.17h-6A13.76,13.76,0,0,1,590.28,402.17Z" transform="translate(0.5 0.5)"/><path class="cls-93" d="M585.19,403.32a5.52,5.52,0,0,1,4.17,0Z" transform="translate(0.5 0.5)"/><path class="cls-92" d="M593.25,402.57c-.67-.05-1.4.28-2-.33A3.38,3.38,0,0,1,593.25,402.57Z" transform="translate(0.5 0.5)"/><path class="cls-94" d="M570.33,412.42c.13.27,0,.65.41.79,0,.31-.28.75-.48.59C569.75,413.4,570,412.88,570.33,412.42Z" transform="translate(0.5 0.5)"/><text class="cls-5" transform="translate(61.5 481.89)">Gl<tspan class="cls-6" x="15.96" y="0">o</tspan><tspan class="cls-9" x="25.26" y="0">v</tspan><tspan x="33.1" y="0">es</tspan></text><text class="cls-5" transform="translate(142.58 481.89)"><tspan class="cls-95">F</tspan><tspan x="8.64" y="0">ace Masks</tspan></text><text class="cls-5" transform="translate(274.57 481.89)">E<tspan class="cls-20" x="9.66" y="0">y</tspan><tspan x="17.36" y="0">e</tspan><tspan x="-26.06" y="21.6">P</tspan><tspan class="cls-22" x="-15.28" y="21.6">r</tspan><tspan class="cls-19" x="-9.41" y="21.6">o</tspan><tspan class="cls-20" x="0.02" y="21.6">t</tspan><tspan x="5.56" y="21.6">ection</tspan></text><text class="cls-5" transform="translate(354.48 481.89)"><tspan class="cls-96">W</tspan><tspan x="15.45" y="0">elding </tspan><tspan x="12.53" y="21.6">Mask</tspan></text><text class="cls-5" transform="translate(555.45 481.89)">Hearing <tspan x="-7.13" y="21.6">P</tspan><tspan class="cls-22" x="3.65" y="21.6">r</tspan><tspan class="cls-19" x="9.51" y="21.6">o</tspan><tspan class="cls-20" x="18.94" y="21.6">t</tspan><tspan x="24.49" y="21.6">ection</tspan></text><text class="cls-5" transform="translate(653.35 481.89)">P<tspan class="cls-22" x="10.78" y="0">r</tspan><tspan class="cls-19" x="16.65" y="0">o</tspan><tspan class="cls-20" x="26.08" y="0">t</tspan><tspan x="31.62" y="0">ecti</tspan><tspan class="cls-9" x="59.65" y="0">v</tspan><tspan x="67.49" y="0">e </tspan><tspan x="9.07" y="21.6">Cl</tspan><tspan class="cls-19" x="23.9" y="21.6">o</tspan><tspan x="33.33" y="21.6">thing</tspan></text><text class="cls-5" transform="translate(440.71 481.89) scale(1.05 1)">App<tspan class="cls-97" x="30.24" y="0">r</tspan><tspan x="36.11" y="0">opria</tspan><tspan class="cls-98" x="75.42" y="0">t</tspan><tspan x="80.96" y="0">e</tspan><tspan class="cls-99" x="9.65" y="21.6">F</tspan><tspan x="18.43" y="21.6">o</tspan><tspan class="cls-100" x="27.95" y="21.6">o</tspan><tspan class="cls-101" x="37.38" y="21.6">t</tspan><tspan class="cls-97" x="43.18" y="21.6">w</tspan><tspan x="55.62" y="21.6">ear</tspan></text><line class="cls-2" x1="37.96" y1="533.88" x2="737.96" y2="533.88"/><line class="cls-2" x1="37.96" y1="583.88" x2="737.96" y2="583.88"/><rect class="cls-2" x="72.96" y="543.88" width="30" height="30"/><rect class="cls-2" x="172.96" y="543.88" width="30" height="30"/><rect class="cls-2" x="372.96" y="543.88" width="30" height="30"/><rect class="cls-2" x="572.96" y="543.88" width="30" height="30"/><rect class="cls-2" x="272.96" y="543.88" width="30" height="30"/><line class="cls-2" x1="272.96" y1="543.88" x2="302.96" y2="573.88"/><line class="cls-2" x1="302.96" y1="543.88" x2="272.96" y2="573.88"/><rect class="cls-2" x="472.96" y="543.88" width="30" height="30"/><line class="cls-2" x1="472.96" y1="543.88" x2="502.96" y2="573.88"/><line class="cls-2" x1="502.96" y1="543.88" x2="472.96" y2="573.88"/><rect class="cls-2" x="672.96" y="543.88" width="30" height="30"/><line class="cls-2" x1="672.96" y1="543.88" x2="702.96" y2="573.88"/><line class="cls-2" x1="702.96" y1="543.88" x2="672.96" y2="573.88"/><text class="cls-14" transform="translate(49.07 666.89)"><tspan class="cls-102">1</tspan><tspan x="11.21" y="0">. PRE-Operation/</tspan><tspan class="cls-103" x="153.56" y="0">T</tspan><tspan x="161.32" y="0">ask:</tspan><tspan class="cls-16"><tspan x="0" y="28">•</tspan><tspan class="cls-104" x="12" y="28">	</tspan><tspan class="cls-105" x="36" y="28">T</tspan><tspan x="43.67" y="28">ask (e.g. Dr</tspan><tspan class="cls-9" x="130.62" y="28">a</tspan><tspan x="140.19" y="28">wings, instructions, speci</tspan><tspan class="cls-22" x="331.98" y="28">f</tspan><tspan x="337.56" y="28">ications </tspan><tspan class="cls-22" x="402.22" y="28">e</tspan><tspan x="411.56" y="28">tc.) is clearly unde</tspan><tspan class="cls-27" x="550.31" y="28">r</tspan><tspan x="556.5" y="28">s</tspan><tspan class="cls-21" x="564.67" y="28">t</tspan><tspan x="570.15" y="28">ood.</tspan><tspan x="0" y="56">•</tspan><tspan class="cls-104" x="12" y="56">	</tspan><tspan x="36" y="56">Drill bit is tight in </tspan><tspan class="cls-7" x="171.18" y="56">c</tspan><tspan x="179.65" y="56">hu</tspan><tspan class="cls-7" x="199.12" y="56">c</tspan><tspan x="207.59" y="56">k and </tspan><tspan class="cls-7" x="255.34" y="56">c</tspan><tspan x="263.81" y="56">hu</tspan><tspan class="cls-7" x="283.28" y="56">c</tspan><tspan x="291.75" y="56">k </tspan><tspan class="cls-15" x="305.83" y="56">k</tspan><tspan class="cls-21" x="315.18" y="56">e</tspan><tspan x="324.29" y="56">y has been rem</tspan><tspan class="cls-6" x="442.79" y="56">o</tspan><tspan class="cls-9" x="452.09" y="56">v</tspan><tspan x="459.93" y="56">ed.</tspan><tspan x="0" y="84">•</tspan><tspan class="cls-104" x="12" y="84">	</tspan><tspan x="36" y="84">Ensure app</tspan><tspan class="cls-22" x="122.32" y="84">r</tspan><tspan x="128.18" y="84">opria</tspan><tspan class="cls-20" x="167.49" y="84">t</tspan><tspan x="173.04" y="84">e guarding is in place and in good condition.</tspan><tspan x="0" y="112">•</tspan><tspan class="cls-104" x="12" y="112">	</tspan><tspan x="36" y="112">Ensure </tspan><tspan class="cls-106" x="93.2" y="112">w</tspan><tspan x="105.62" y="112">o</tspan><tspan class="cls-19" x="115.14" y="112">r</tspan><tspan x="121.02" y="112">k piece is securely clamped.</tspan><tspan x="0" y="140">•</tspan><tspan class="cls-104" x="12" y="140">	</tspan><tspan x="36" y="140">Correct drill speed has been s</tspan><tspan class="cls-22" x="263.47" y="140">e</tspan><tspan x="272.8" y="140">t.</tspan><tspan x="0" y="168">•</tspan><tspan class="cls-104" x="12" y="168">	</tspan><tspan x="36" y="168">Where necessa</tspan><tspan class="cls-107" x="154.09" y="168">r</tspan><tspan class="cls-108" x="160.49" y="168">y</tspan><tspan x="167.79" y="168">, ensure depth s</tspan><tspan class="cls-21" x="290.66" y="168">t</tspan><tspan x="296.14" y="168">op </tspan><tspan class="cls-109" x="319.85" y="168">f</tspan><tspan x="325.36" y="168">or drill has been s</tspan><tspan class="cls-22" x="461.87" y="168">e</tspan><tspan x="471.21" y="168">t or </tspan><tspan class="cls-106" x="501.5" y="168">w</tspan><tspan x="513.91" y="168">ood </tspan><tspan class="cls-21" x="547.15" y="168">t</tspan><tspan x="552.62" y="168">o be drilled is </tspan><tspan x="0" y="196">res</tspan><tspan class="cls-20" x="23.58" y="196">t</tspan><tspan x="29.13" y="196">ed on scrap.</tspan><tspan x="0" y="224">•</tspan><tspan class="cls-104" x="12" y="224">	</tspan><tspan x="36" y="224">Identify ON/OFF swit</tspan><tspan class="cls-7" x="195.21" y="224">c</tspan><tspan x="203.69" y="224">h and emergency s</tspan><tspan class="cls-21" x="349.65" y="224">t</tspan><tspan x="355.12" y="224">op but</tspan><tspan class="cls-21" x="404.04" y="224">t</tspan><tspan x="409.52" y="224">on (if applicable).</tspan></tspan><tspan x="0" y="252">2. Operation/</tspan><tspan class="cls-103" x="113.48" y="252">T</tspan><tspan x="121.25" y="252">ask:</tspan><tspan class="cls-16"><tspan x="0" y="280">•</tspan><tspan class="cls-104" x="12" y="280">	</tspan><tspan x="36" y="280">Che</tspan><tspan class="cls-7" x="65.62" y="280">c</tspan><tspan class="cls-110" x="74.09" y="280">k</tspan><tspan x="84" y="280">, that drill runs ‘true’ and does n</tspan><tspan class="cls-19" x="328.72" y="280">o</tspan><tspan x="338.15" y="280">t </tspan><tspan class="cls-106" x="348.45" y="280">w</tspan><tspan x="360.87" y="280">obble.</tspan><tspan x="0" y="308">•</tspan><tspan class="cls-104" x="12" y="308">	</tspan><tspan class="cls-111" x="36" y="308">K</tspan><tspan x="46.67" y="308">eep hands clear of </tspan><tspan class="cls-106" x="193.47" y="308">w</tspan><tspan x="205.89" y="308">o</tspan><tspan class="cls-19" x="215.41" y="308">r</tspan><tspan x="221.29" y="308">k piece and </tspan><tspan class="cls-9" x="314.9" y="308">a</tspan><tspan class="cls-109" x="324.47" y="308">w</tspan><tspan class="cls-28" x="336.84" y="308">a</tspan><tspan x="346.26" y="308">y f</tspan><tspan class="cls-22" x="364.4" y="308">r</tspan><tspan x="370.27" y="308">om </tspan><tspan class="cls-22" x="399.95" y="308">r</tspan><tspan class="cls-19" x="405.81" y="308">o</tspan><tspan x="415.24" y="308">tating </tspan><tspan class="cls-21" x="464.55" y="308">t</tspan><tspan x="470.02" y="308">ool.</tspan><tspan x="0" y="336">•</tspan><tspan class="cls-104" x="12" y="336">	</tspan><tspan x="36" y="336">Ba</tspan><tspan class="cls-7" x="56.66" y="336">c</tspan><tspan x="65.14" y="336">k out frequently </tspan><tspan class="cls-21" x="191.14" y="336">t</tspan><tspan x="196.62" y="336">o clean and cool the drill bit.</tspan><tspan x="0" y="364">•</tspan><tspan class="cls-104" x="12" y="364">	</tspan><tspan class="cls-112" x="36" y="364">T</tspan><tspan x="43.73" y="364">urn o</tspan><tspan class="cls-113" x="83.17" y="364">f</tspan><tspan x="89.25" y="364">f ma</tspan><tspan class="cls-7" x="124.83" y="364">c</tspan><tspan x="133.3" y="364">hine be</tspan><tspan class="cls-109" x="190.28" y="364">f</tspan><tspan x="195.79" y="364">ore belt speeds are </tspan><tspan class="cls-7" x="347.81" y="364">c</tspan><tspan x="356.28" y="364">hanged.</tspan></tspan><tspan x="0" y="392">3. PO</tspan><tspan class="cls-30" x="44.02" y="392">S</tspan><tspan class="cls-114" x="55.09" y="392">T</tspan><tspan x="63.35" y="392">-Operation/</tspan><tspan class="cls-103" x="161.78" y="392">T</tspan><tspan x="169.54" y="392">ask:</tspan><tspan class="cls-16"><tspan x="0" y="420">•</tspan><tspan class="cls-104" x="12" y="420">	</tspan><tspan x="36" y="420">Swit</tspan><tspan class="cls-7" x="69.03" y="420">c</tspan><tspan x="77.5" y="420">h o</tspan><tspan class="cls-113" x="101.28" y="420">f</tspan><tspan x="107.36" y="420">f the drill be</tspan><tspan class="cls-109" x="199.55" y="420">f</tspan><tspan x="205.06" y="420">ore rem</tspan><tspan class="cls-6" x="265.55" y="420">o</tspan><tspan x="274.85" y="420">ving </tspan><tspan class="cls-7" x="310.83" y="420">c</tspan><tspan x="319.3" y="420">hips and sh</tspan><tspan class="cls-6" x="407.43" y="420">a</tspan><tspan x="416.94" y="420">vings f</tspan><tspan class="cls-22" x="466.77" y="420">r</tspan><tspan x="472.63" y="420">om the drill table.</tspan><tspan x="0" y="448">•</tspan><tspan class="cls-104" x="12" y="448">	</tspan><tspan class="cls-6" x="36" y="448">R</tspan><tspan class="cls-22" x="47.35" y="448">e</tspan><tspan x="56.68" y="448">turn clean drill bit </tspan><tspan class="cls-21" x="196.38" y="448">t</tspan><tspan x="201.86" y="448">o drill ra</tspan><tspan class="cls-7" x="264.95" y="448">c</tspan><tspan x="273.42" y="448">k and clamps </tspan><tspan class="cls-21" x="381.72" y="448">t</tspan><tspan x="387.19" y="448">o their s</tspan><tspan class="cls-21" x="449.25" y="448">t</tspan><tspan x="454.73" y="448">orage area.</tspan><tspan x="0" y="476">•</tspan><tspan class="cls-104" x="12" y="476">	</tspan><tspan x="36" y="476">Ensure good house</tspan><tspan class="cls-15" x="182.36" y="476">k</tspan><tspan x="191.7" y="476">eeping practices are in place </tspan><tspan class="cls-21" x="417.16" y="476">t</tspan><tspan x="422.64" y="476">o minimise dust build-up.</tspan></tspan></text><line class="cls-115" x1="170.5" y1="1209.85" x2="170.5" y2="1317.5"/><line class="cls-115" x1="506.5" y1="1209.85" x2="506.5" y2="1317.5"/><text class="cls-23" transform="translate(47 1239.51)"><tspan class="cls-25">N</tspan><tspan x="12.42" y="0">ame:</tspan></text><text class="cls-23" transform="translate(184 1239.51)">Title:</text><text class="cls-23" transform="translate(522 1239.51)">Con<tspan class="cls-30" x="32.58" y="0">t</tspan><tspan x="39.41" y="0">act De</tspan><tspan class="cls-30" x="93.35" y="0">t</tspan><tspan x="100.18" y="0">ails:</tspan></text><text class="cls-12" transform="translate(47 1339.51)">sa<tspan class="cls-9" x="20.89" y="0">f</tspan><tspan class="cls-22" x="27.34" y="0">e</tspan><tspan x="38.23" y="0">ty</tspan><tspan class="cls-106" x="54.27" y="0">w</tspan><tspan x="68.76" y="0">o</tspan><tspan class="cls-19" x="79.87" y="0">r</tspan><tspan x="86.73" y="0">kblog.com</tspan></text><path class="cls-42" d="M722.54,426.42a35,35,0,1,1-34.3-35A35.05,35.05,0,0,1,722.54,426.42Z" transform="translate(0.5 0.5)"/><path class="cls-43" d="M680.44,409.2c-1.56,4.49-3.13,9-4.67,13.48-.18.55-.37.69-.93.52-1.09-.34-2.21-.61-3.31-.9-.33-.08-.45-.15-.31-.55q3.12-9,6.21-18.06a4,4,0,0,1,3.7-2.72c.82,0,1.64,0,2.46,0,.31,0,.48,0,.55-.42a2.13,2.13,0,0,1,2.61-1.65c.18,0,.24.12.24.28s0,.37,0,.55v21.06c0,.78,0,.8.84.75.29,0,.32-.16.32-.39,0-.6,0-1.19,0-1.78,0-6.59,0-13.18,0-19.77,0-.63.19-.75.76-.71a2,2,0,0,1,2.07,1.7c.06.34.19.38.47.38q1.2,0,2.4,0a4,4,0,0,1,3.91,2.93c1.74,5.15,3.52,10.28,5.28,15.41.29.85.57,1.71.88,2.55.11.29,0,.39-.24.47-1.21.31-2.41.63-3.61,1-.38.11-.51,0-.64-.36-1.54-4.5-3.11-9-4.67-13.48-.08-.23-.17-.45-.3-.82a16.28,16.28,0,0,0-.18,2.71c-.15,3.2-.33,6.41-.43,9.61a20,20,0,0,0,.52,3.76c.79,5.11,1.6,10.21,2.4,15.32.64,4,1.27,8.07,1.92,12.11.08.48,0,.68-.52.76-1.61.24-3.22.52-4.82.84-.55.11-.77,0-.88-.58q-2.31-12.54-4.68-25.06a.27.27,0,0,0-.17-.21c-.22,1.09-.45,2.17-.66,3.26q-2.18,11-4.33,22.07c-.09.43-.22.57-.68.48-1.69-.33-3.38-.62-5.07-.89-.38-.06-.46-.16-.4-.54.53-3.18,1-6.37,1.56-9.56l2.4-14.82c.34-2.12.68-4.24,1-6.35a6,6,0,0,0,0-1.4l-.87-10.95C680.58,409.09,680.51,409.1,680.44,409.2Z" transform="translate(0.5 0.5)"/><path class="cls-116" d="M680.44,409.2c0-.15,0-.31.18-.3s0,.19,0,.3Z" transform="translate(0.5 0.5)"/><path class="cls-117" d="M691,407.84h.61c1.05,0,1,0,.94,1.05,0,.25-.12.31-.34.31H689.8c-.26,0-.35-.09-.37-.35-.07-1-.08-1,.93-1Z" transform="translate(0.5 0.5)"/></svg>